<svg width="18" height="18" viewBox="0 0 18 18" fill="none" xmlns="http://www.w3.org/2000/svg">
<path d="M16.5 8.375C15.6712 8.375 14.8763 8.04576 14.2903 7.45971C13.7042 6.87366 13.375 6.0788 13.375 5.25C13.375 5.08424 13.3092 4.92527 13.1919 4.80806C13.0747 4.69085 12.9158 4.625 12.75 4.625C11.9212 4.625 11.1263 4.29576 10.5403 3.70971C9.95424 3.12366 9.625 2.3288 9.625 1.5C9.625 1.33424 9.55916 1.17527 9.44195 1.05806C9.32474 0.940848 9.16576 0.875 9 0.875C7.39303 0.875 5.82214 1.35152 4.486 2.24431C3.14985 3.1371 2.10844 4.40605 1.49348 5.8907C0.87852 7.37535 0.717618 9.00901 1.03112 10.5851C1.34463 12.1612 2.11846 13.6089 3.25476 14.7452C4.39106 15.8815 5.8388 16.6554 7.4149 16.9689C8.99099 17.2824 10.6247 17.1215 12.1093 16.5065C13.594 15.8916 14.8629 14.8502 15.7557 13.514C16.6485 12.1779 17.125 10.607 17.125 9C17.125 8.83424 17.0592 8.67527 16.9419 8.55806C16.8247 8.44085 16.6658 8.375 16.5 8.375ZM4.89922 6.77422C5.03046 6.64343 5.19752 6.55447 5.37928 6.51856C5.56105 6.48265 5.74938 6.5014 5.9205 6.57246C6.09162 6.64351 6.23784 6.76367 6.34071 6.91777C6.44358 7.07187 6.49848 7.253 6.49848 7.43828C6.49848 7.62356 6.44358 7.80469 6.34071 7.95879C6.23784 8.11289 6.09162 8.23305 5.9205 8.30411C5.74938 8.37516 5.56105 8.39391 5.37928 8.35801C5.19752 8.32209 5.03046 8.23313 4.89922 8.10234C4.81182 8.01525 4.74248 7.91175 4.69516 7.7978C4.64784 7.68384 4.62348 7.56167 4.62348 7.43828C4.62348 7.31489 4.64784 7.19272 4.69516 7.07876C4.74248 6.96481 4.81182 6.86132 4.89922 6.77422ZM6.85235 12.4773C6.72111 12.6081 6.55405 12.6971 6.37229 12.733C6.19052 12.7689 6.00218 12.7502 5.83107 12.6791C5.65995 12.6081 5.51373 12.4879 5.41086 12.3338C5.30799 12.1797 5.25309 11.9986 5.25309 11.8133C5.25309 11.628 5.30799 11.4469 5.41086 11.2928C5.51373 11.1387 5.65995 11.0185 5.83107 10.9475C6.00218 10.8764 6.19052 10.8576 6.37229 10.8936C6.55405 10.9295 6.72111 11.0184 6.85235 11.1492C6.93941 11.2364 7.00844 11.3399 7.05548 11.4537C7.10253 11.5676 7.12667 11.6896 7.12652 11.8128C7.12638 11.936 7.10195 12.058 7.05464 12.1717C7.00732 12.2855 6.93805 12.3888 6.85078 12.4758L6.85235 12.4773ZM8.64922 9.35234C8.51844 9.2211 8.42947 9.05405 8.39356 8.87228C8.35765 8.69051 8.37641 8.50218 8.44746 8.33107C8.51851 8.15995 8.63868 8.01372 8.79278 7.91085C8.94688 7.80798 9.128 7.75308 9.31328 7.75308C9.49857 7.75308 9.67969 7.80798 9.83379 7.91085C9.98789 8.01372 10.1081 8.15995 10.1791 8.33107C10.2502 8.50218 10.2689 8.69051 10.233 8.87228C10.1971 9.05405 10.1081 9.2211 9.97735 9.35234C9.89015 9.43964 9.78657 9.50887 9.67256 9.55605C9.55855 9.60323 9.43635 9.62745 9.31296 9.6273C9.18957 9.62716 9.06743 9.60266 8.95353 9.5552C8.83963 9.50775 8.73622 9.43828 8.64922 9.35078V9.35234ZM11.8523 13.1023C11.7211 13.2331 11.5541 13.3221 11.3723 13.358C11.1905 13.3939 11.0022 13.3752 10.8311 13.3041C10.66 13.2331 10.5137 13.1129 10.4109 12.9588C10.308 12.8047 10.2531 12.6236 10.2531 12.4383C10.2531 12.253 10.308 12.0719 10.4109 11.9178C10.5137 11.7637 10.66 11.6435 10.8311 11.5725C11.0022 11.5014 11.1905 11.4826 11.3723 11.5186C11.5541 11.5545 11.7211 11.6434 11.8523 11.7742C11.9394 11.8614 12.0084 11.9649 12.0555 12.0787C12.1025 12.1926 12.1267 12.3146 12.1265 12.4378C12.1264 12.561 12.1019 12.683 12.0546 12.7967C12.0073 12.9105 11.9381 13.0138 11.8508 13.1008L11.8523 13.1023Z" fill="white"/>
</svg>
